<svg xmlns="http://www.w3.org/2000/svg" width="250" height="130" viewBox="0 0 250 130"><rect width="100%" height="100%" fill="#DDDDDD"/><path fill="#999999" d="M53.955 65.23h2.92q1.07 0 1.87-.26.8-.27 1.33-.77.52-.5.79-1.22.26-.72.26-1.6 0-.84-.26-1.53-.27-.68-.79-1.15-.52-.48-1.32-.74-.79-.25-1.88-.25h-2.92v7.52Zm-3.9-10.54h6.82q2.1 0 3.64.5 1.53.49 2.54 1.37 1 .89 1.48 2.12.49 1.23.49 2.7 0 1.52-.51 2.79t-1.52 2.18q-1.02.91-2.55 1.42-1.53.51-3.57.51h-2.92v7.38h-3.9V54.69Zm17.43-.58h3.58v21.55h-3.58V54.11Zm15.02 17.71v-2.51q-1.55.07-2.61.27-1.05.19-1.69.5-.64.3-.92.71-.27.4-.27.88 0 .94.56 1.35.56.41 1.45.41 1.11 0 1.91-.4.81-.4 1.57-1.21ZM74.945 64l-.64-1.14q2.56-2.35 6.17-2.35 1.31 0 2.34.43 1.03.42 1.74 1.18.71.77 1.08 1.82.37 1.06.37 2.32v9.4h-1.63q-.5 0-.78-.15-.27-.15-.43-.62l-.32-1.07q-.57.51-1.1.89-.54.38-1.12.65-.58.26-1.24.39-.66.14-1.46.14-.94 0-1.74-.25-.8-.26-1.38-.76-.58-.51-.89-1.26-.32-.76-.32-1.76 0-.56.19-1.12.18-.56.61-1.07t1.11-.96q.68-.45 1.68-.78.99-.33 2.31-.54 1.32-.21 3.01-.26v-.87q0-1.49-.63-2.21-.64-.72-1.85-.72-.87 0-1.44.21-.57.2-1.01.45-.43.26-.79.46-.35.2-.79.2-.37 0-.63-.19-.27-.2-.42-.46Zm26.02-1.38-.94 1.31q-.16.2-.31.32-.15.11-.44.11-.28 0-.54-.16-.26-.17-.62-.38-.37-.21-.87-.38-.5-.16-1.24-.16-.94 0-1.65.34t-1.18.98q-.47.63-.7 1.54-.24.91-.24 2.05 0 1.19.26 2.12.25.93.73 1.56t1.16.96q.68.32 1.54.32.85 0 1.38-.21.53-.21.89-.46.37-.26.63-.47.27-.21.61-.21.43 0 .65.34l1.03 1.3q-.6.7-1.29 1.17-.7.47-1.45.75-.74.29-1.53.4-.79.12-1.58.12-1.37 0-2.59-.52-1.22-.51-2.13-1.5-.92-.98-1.45-2.41-.52-1.43-.52-3.26 0-1.64.47-3.04.47-1.39 1.38-2.42.91-1.02 2.26-1.6 1.35-.58 3.11-.58 1.66 0 2.92.54 1.25.53 2.25 1.53Zm5.21 3.89h6.76q0-.7-.2-1.31-.2-.62-.59-1.08-.39-.47-.99-.73-.6-.27-1.4-.27-1.55 0-2.44.88-.9.89-1.14 2.51Zm9.13 2.16h-9.2q.08 1.15.4 1.98.32.83.84 1.38.52.54 1.24.81t1.59.27q.87 0 1.5-.21.63-.2 1.1-.44.47-.25.83-.45.35-.21.69-.21.45 0 .67.34l1.02 1.3q-.59.7-1.33 1.17-.74.47-1.54.75-.81.29-1.64.4-.84.12-1.62.12-1.55 0-2.88-.52-1.34-.51-2.32-1.52-.99-1.01-1.56-2.49-.56-1.49-.56-3.45 0-1.52.49-2.86.49-1.34 1.42-2.34.92-.99 2.24-1.57 1.33-.58 3-.58 1.4 0 2.59.45t2.05 1.31q.85.87 1.34 2.12.48 1.25.48 2.86 0 .82-.17 1.1-.17.28-.67.28Zm7.11-14.56v8.27q.87-.81 1.91-1.32 1.05-.51 2.45-.51 1.22 0 2.16.41.95.42 1.58 1.16.63.75.95 1.79.33 1.03.33 2.28v9.47h-3.58v-9.47q0-1.36-.63-2.11-.62-.75-1.89-.75-.93 0-1.74.43-.82.42-1.54 1.14v10.76h-3.58V54.11h3.58Zm19.36 6.44q1.65 0 3 .54 1.36.53 2.32 1.52.97.99 1.49 2.41.52 1.42.52 3.17 0 1.77-.52 3.19t-1.49 2.42q-.96 1-2.32 1.54-1.35.54-3 .54-1.67 0-3.03-.54-1.37-.54-2.33-1.54-.97-1-1.5-2.42-.52-1.42-.52-3.19 0-1.75.52-3.17.53-1.42 1.5-2.41.96-.99 2.33-1.52 1.36-.54 3.03-.54Zm0 12.57q1.85 0 2.74-1.24.9-1.25.9-3.66t-.9-3.67q-.89-1.26-2.74-1.26-1.89 0-2.8 1.27-.9 1.27-.9 3.66t.9 3.65q.91 1.25 2.8 1.25Zm10.12-19.01h3.58v21.55h-3.58V54.11Zm16.5 17.14v-6.67q-.61-.74-1.33-1.04-.72-.31-1.54-.31-.82 0-1.47.31-.65.3-1.11.92-.47.61-.71 1.56-.25.95-.25 2.24 0 1.31.21 2.22.21.9.6 1.48.39.57.96.82.56.26 1.26.26 1.12 0 1.9-.47.78-.46 1.48-1.32Zm0-17.14h3.58v21.55h-2.19q-.71 0-.9-.65l-.3-1.44q-.9 1.03-2.07 1.67-1.17.64-2.72.64-1.22 0-2.23-.51-1.02-.51-1.75-1.47-.73-.97-1.13-2.39-.4-1.42-.4-3.25 0-1.65.45-3.07t1.29-2.46q.84-1.05 2.02-1.64 1.17-.58 2.64-.58 1.24 0 2.13.39.88.39 1.58 1.06v-7.85Zm9.94 12.4h6.76q0-.7-.19-1.31-.2-.62-.59-1.08-.39-.47-.99-.73-.61-.27-1.4-.27-1.56 0-2.45.88-.89.89-1.14 2.51Zm9.14 2.16h-9.21q.09 1.15.41 1.98.32.83.84 1.38.52.54 1.24.81t1.59.27q.87 0 1.5-.21.63-.2 1.1-.44.47-.25.83-.45.35-.21.68-.21.45 0 .67.34l1.03 1.3q-.59.7-1.33 1.17-.74.47-1.55.75-.8.29-1.64.4-.83.12-1.61.12-1.55 0-2.89-.52-1.33-.51-2.32-1.52-.98-1.01-1.55-2.49-.56-1.49-.56-3.45 0-1.52.49-2.86.49-1.34 1.41-2.34.92-.99 2.25-1.57 1.33-.58 2.99-.58 1.41 0 2.6.45 1.19.45 2.04 1.31.86.87 1.35 2.12.48 1.25.48 2.86 0 .82-.17 1.1-.18.28-.67.28Zm6.68-6.99.22 1.68q.7-1.33 1.65-2.09.96-.76 2.27-.76 1.03 0 1.65.45l-.23 2.68q-.07.26-.21.37-.14.11-.37.11-.22 0-.65-.07-.43-.08-.83-.08-.6 0-1.06.18-.46.17-.83.5-.37.32-.66.79-.28.46-.53 1.06v9.16h-3.58V60.78h2.11q.55 0 .76.2.22.19.29.7Z"/></svg>